<svg viewBox="-181 -181 362 362" width="380" height="380" xmlns="http://www.w3.org/2000/svg" style="font-size: 14px; font-family: Arial,Helvetica Neue,Helvetica,sans-serif;">
<g class="backlights">
<path class="openness-to-change " d="M 0,0 L 0,-180 A 180 180 0 0 1 164.44 -78.21 z" fill="white"/>
<path class="self-enhancement " d="M 0,0 L 164.44,-78.21 A 180 180 0 0 1 110.82 141.84 z" fill="white"/>
<path class="conservation " d="M 0,0 L 110.82,141.84 A 180 180 0 0 1 -174.65 43.55 z" fill="white"/>
<path class="self-transcendence " d="M 0,0 L -174.65,43.55 A 180 180 0 0 1 0,-180 z" fill="white"/>
<path class="self-direction-thought openness-to-change personal-focus growth" d="M 0,0 L 0.00,-160.00 A 160 160 0 0 1 51.95 -151.33 z" fill="white"/>
<path class="self-direction-action openness-to-change personal-focus growth" d="M 0,0 L 51.95,-151.33 A 160 160 0 0 1 98.27 -126.26 z" fill="white"/>
<path class="stimulation openness-to-change personal-focus growth" d="M 0,0 L 98.27,-126.26 A 160 160 0 0 1 133.95 -87.51 z" fill="white"/>
<path class="hedonism openness-to-change self-enhancement personal-focus growth" d="M 0,0 L 133.95,-87.51 A 160 160 0 0 1 155.10 -39.28 z" fill="white"/>
<path class="achievement self-enhancement personal-focus growth self-protection" d="M 0,0 L 155.10,-39.28 A 160 160 0 0 1 159.45 13.21 z" fill="white"/>
<path class="power-dominance self-enhancement personal-focus self-protection" d="M 0,0 L 159.45,13.21 A 160 160 0 0 1 146.52 64.27 z" fill="white"/>
<path class="power-resources self-enhancement personal-focus self-protection" d="M 0,0 L 146.52,64.27 A 160 160 0 0 1 117.72 108.37 z" fill="white"/>
<path class="face self-enhancement conservation personal-focus self-protection" d="M 0,0 L 117.72,108.37 A 160 160 0 0 1 76.15 140.72 z" fill="white"/>
<path class="security-personal conservation personal-focus self-protection" d="M 0,0 L 76.15,140.72 A 160 160 0 0 1 26.34 157.82 z" fill="white"/>
<path class="security-societal conservation social-focus self-protection" d="M 0,0 L 26.34,157.82 A 160 160 0 0 1 -26.34 157.82 z" fill="white"/>
<path class="tradition conservation social-focus self-protection" d="M 0,0 L -26.34,157.82 A 160 160 0 0 1 -76.15 140.72 z" fill="white"/>
<path class="conformity-rules conservation social-focus self-protection" d="M 0,0 L -76.15,140.72 A 160 160 0 0 1 -117.72 108.37 z" fill="white"/>
<path class="conformity-interpersonal conservation social-focus self-protection" d="M 0,0 L -117.72,108.37 A 160 160 0 0 1 -146.52 64.27 z" fill="white"/>
<path class="humility conservation self-transcendence social-focus self-protection growth" d="M 0,0 L -146.52,64.27 A 160 160 0 0 1 -159.45 13.21 z" fill="white"/>
<path class="benevolence-caring self-transcendence social-focus growth" d="M 0,0 L -159.45,13.21 A 160 160 0 0 1 -155.10 -39.28 z" fill="white"/>
<path class="benevolence-dependability self-transcendence social-focus growth" d="M 0,0 L -155.10,-39.28 A 160 160 0 0 1 -133.95 -87.51 z" fill="white"/>
<path class="universalism-concern self-transcendence social-focus growth" d="M 0,0 L -133.95,-87.51 A 160 160 0 0 1 -98.27 -126.26 z" fill="white"/>
<path class="universalism-nature self-transcendence social-focus growth" d="M 0,0 L -98.27,-126.26 A 160 160 0 0 1 -51.95 -151.33 z" fill="white"/>
<path class="universalism-tolerance self-transcendence social-focus growth" d="M 0,0 L -51.95,-151.33 A 160 160 0 0 1 0.00 -160.00 z" fill="white"/>
</g>
<g class="labels">
<path id="pathSelfDirection" d="M 0,-146 A 146 146 0 0 1 89.68 -115.21" fill="none"/>
<text text-anchor="middle"><textPath href="#pathSelfDirection" startOffset="45.87">Self-direction:</textPath></text>
<path id="pathPower" d="M 114.77,105.66 A 156 156 0 0 0 155.47 12.88" fill="none"/>
<text text-anchor="middle"><textPath href="#pathPower" startOffset="49.01">Power:</textPath></text>
<path id="pathSecurity" d="M -25.68,153.87 A 156 156 0 0 0 74.25 137.20" fill="none"/>
<text text-anchor="middle"><textPath href="#pathSecurity" startOffset="49.01">Security:</textPath></text>
<path id="pathConformity" d="M -142.86,62.66 A 156 156 0 0 0 -74.25 137.20" fill="none"/>
<text text-anchor="middle"><textPath href="#pathConformity" startOffset="49.01">Conformity:</textPath></text>
<path id="pathBenevolence" d="M -145.50,12.06 A 146 146 0 0 1 -122.23 -79.85" fill="none"/>
<text text-anchor="middle"><textPath href="#pathBenevolence" startOffset="45.87">Benevolence:</textPath></text>
<path id="pathUniversalism" d="M -122.23,-79.85 A 146 146 0 0 1 0 -146" fill="none"/>
<text text-anchor="middle"><textPath href="#pathUniversalism" startOffset="68.80">Universalism:</textPath></text>
<text transform="translate(134 5) rotate(-81 -134 -5)" text-anchor="end">thought</text>
<text transform="translate(134 5) rotate(-62 -134 -5)" text-anchor="end">action</text>
<text transform="translate(155 5) rotate(-43 -155 -5)" text-anchor="end">Stimulation</text>
<text transform="translate(155 5) rotate(-24 -155 -5)" text-anchor="end">Hedonism</text>
<text transform="translate(155 5) rotate(-5 -155 -5)" text-anchor="end">Achievement</text>
<text transform="translate(134 5) rotate(14 -134 -5)" text-anchor="end">dominance</text>
<text transform="translate(134 5) rotate(33 -134 -5)" text-anchor="end">resources</text>
<text transform="translate(155 5) rotate(52 -155 -5)" text-anchor="end">Face</text>
<text transform="translate(134 5) rotate(71 -134 -5)" text-anchor="end">personal</text>
<text transform="translate(134 5) rotate(90 -134 -5)" text-anchor="end">societal</text>
<text transform="translate(-155 5) rotate(-71 155 -5)" text-anchor="start">Tradition</text>
<text transform="translate(-134 5) rotate(-52 134 -5)" text-anchor="start">rules</text>
<text transform="translate(-134 5) rotate(-33 134 -5)" text-anchor="start">interpersonal</text>
<text transform="translate(-155 5) rotate(-14 155 -5)" text-anchor="start">Humility</text>
<text transform="translate(-134 5) rotate(5 134 -5)" text-anchor="start">caring</text>
<text transform="translate(-134 5) rotate(24 134 -5)" text-anchor="start">dependability</text>
<text transform="translate(-134 5) rotate(43 134 -5)" text-anchor="start">concern</text>
<text transform="translate(-134 5) rotate(62 134 -5)" text-anchor="start">nature</text>
<text transform="translate(-134 5) rotate(81 134 -5)" text-anchor="start">tolerance</text>
<path id="pathOpennessToChange" d="M 0,-166 A 166 166 0 0 1 152.02 -66.68" fill="none"/>
<text text-anchor="middle"><textPath href="#pathOpennessToChange" startOffset="91.26">Openness to change</textPath></text>
<path id="pathSelfEnhancement" d="M 108.10,138.89 A 176 176 0 0 0 161.18 -70.69" fill="none"/>
<text text-anchor="middle"><textPath href="#pathSelfEnhancement" startOffset="110.58">Self-enhancement</textPath></text>
<path id="pathConservation" d="M -170.61,43.21 A 176 176 0 0 0 108.10 138.89" fill="none"/>
<text text-anchor="middle"><textPath href="#pathConservation" startOffset="165.88">Conservation</textPath></text>
<path id="pathSelfTranscendence" d="M -160.92,40.75 A 166 166 0 0 1 0 -166" fill="none"/>
<text text-anchor="middle"><textPath href="#pathSelfTranscendence" startOffset="169.48">Self-transcendence</textPath></text>
</g>
<g class="outline">
<circle cx="0" cy="0" r="160" fill="none" stroke="black"/>
<line x1="0" y1="0" x2="0" y2="-160" stroke="black"/>
<line x1="0" y1="0" x2="46.11" y2="-134.31" stroke="black"/>
<line x1="0" y1="0" x2="98.27" y2="-126.26" stroke="black"/>
<line x1="0" y1="0" x2="133.95" y2="-87.51" stroke="black"/>
<line x1="0" y1="0" x2="155.10" y2="-39.28" stroke="black"/>
<line x1="0" y1="0" x2="159.45" y2="13.21" stroke="black"/>
<line x1="0" y1="0" x2="130.04" y2="57.04" stroke="black"/>
<line x1="0" y1="0" x2="117.72" y2="108.37" stroke="black"/>
<line x1="0" y1="0" x2="76.15" y2="140.72" stroke="black"/>
<line x1="0" y1="0" x2="23.37" y2="140.06" stroke="black"/>
<line x1="0" y1="0" x2="-26.34" y2="157.82" stroke="black"/>
<line x1="0" y1="0" x2="-76.15" y2="140.72" stroke="black"/>
<line x1="0" y1="0" x2="-104.47" y2="96.17" stroke="black"/>
<line x1="0" y1="0" x2="-146.52" y2="64.27" stroke="black"/>
<line x1="0" y1="0" x2="-159.45" y2="13.21" stroke="black"/>
<line x1="0" y1="0" x2="-137.65" y2="-34.86" stroke="black"/>
<line x1="0" y1="0" x2="-133.95" y2="-87.51" stroke="black"/>
<line x1="0" y1="0" x2="-87.22" y2="-112.06" stroke="black"/>
<line x1="0" y1="0" x2="-46.11" y2="-134.31" stroke="black"/>
<circle cx="0" cy="0" r="180" fill="none" stroke="black"/>
<line x1="0" y1="-160" x2="0" y2="-180" stroke="black"/>
<line x1="146.17" y1="-65.08" x2="164.44" y2="-73.21" stroke="black"/> <!-- -24 -->
<line x1="98.51" y1="126.08" x2="110.82" y2="141.84" stroke="black"/> <!-- 52 -->
<line x1="-155.25" y1="38.71" x2="-174.65" y2="43.55" stroke="black"/> <!-- 166 -->
</g>
</svg>
